<?xml version="1.0" encoding="UTF-8"?>
<svg version="1.1" xmlns="http://www.w3.org/2000/svg" width="94" height="114">
<path d="M0 0 C3.3125 1 3.3125 1 5.3125 4 C5.55300903 6.03117371 5.55300903 6.03117371 5.53955078 8.37963867 C5.53939972 9.26032516 5.53924866 10.14101166 5.53909302 11.04838562 C5.52877045 11.99534805 5.51844788 12.94231049 5.5078125 13.91796875 C5.5049826 14.89034988 5.50215271 15.86273102 5.49923706 16.86457825 C5.48803599 19.97234366 5.46293148 23.07982159 5.4375 26.1875 C5.42747011 28.29361563 5.41834427 30.39973578 5.41015625 32.50585938 C5.38809688 37.6706838 5.35356746 42.83529315 5.3125 48 C6.3025 48 7.2925 48 8.3125 48 C8.26029297 46.10314453 8.26029297 46.10314453 8.20703125 44.16796875 C8.17889323 42.50782577 8.15159309 40.84766844 8.125 39.1875 C8.09986328 38.35412109 8.07472656 37.52074219 8.04882812 36.66210938 C8.03916016 35.85966797 8.02949219 35.05722656 8.01953125 34.23046875 C8.0038208 33.49207764 7.98811035 32.75368652 7.97192383 31.99291992 C8.41154582 29.42042221 9.27904618 28.58881322 11.3125 27 C14.1875 26 14.1875 26 17.3125 26 C19.98828125 27.76171875 19.98828125 27.76171875 22.3125 31 C22.92887361 34.95456288 22.78342698 38.82257735 22.625 42.8125 C22.60244141 43.88693359 22.57988281 44.96136719 22.55664062 46.06835938 C22.49785598 48.7136685 22.41573957 51.35611413 22.3125 54 C22.9725 54 23.6325 54 24.3125 54 C24.26609375 52.83082031 24.2196875 51.66164062 24.171875 50.45703125 C24.13434406 48.9088798 24.09794531 47.36070061 24.0625 45.8125 C24.02898438 45.04357422 23.99546875 44.27464844 23.9609375 43.48242188 C23.89281092 39.51404854 24.03208491 37.47224589 26.10546875 33.98046875 C28.3125 32 28.3125 32 31.875 31.5 C35.3125 32 35.3125 32 37.1875 33.3125 C39.29297248 36.47070872 39.43244168 39.20962294 39.41015625 42.88671875 C39.40532227 44.2934082 39.40532227 44.2934082 39.40039062 45.72851562 C39.38782227 47.19321289 39.38782227 47.19321289 39.375 48.6875 C39.37048828 49.67556641 39.36597656 50.66363281 39.36132812 51.68164062 C39.34954303 54.12115474 39.33309011 56.56054689 39.3125 59 C39.9725 59 40.6325 59 41.3125 59 C41.26609375 57.89140625 41.2196875 56.7828125 41.171875 55.640625 C41.13434898 54.17711032 41.09794971 52.71356644 41.0625 51.25 C41.02898437 50.52039062 40.99546875 49.79078125 40.9609375 49.0390625 C40.89603003 45.46915151 40.99492122 43.43158141 43.140625 40.515625 C46.0993476 38.45090491 47.77826814 38.41096136 51.3125 39 C54.53533984 41.31591188 55.24391253 42.5818758 55.89355469 46.54223633 C55.94638836 47.97151222 55.97506536 49.40180948 55.984375 50.83203125 C56.00063431 51.60897842 56.01689362 52.3859256 56.03364563 53.18641663 C56.07174352 55.72911624 56.07133526 58.26955279 56.0625 60.8125 C56.06635208 62.10815887 56.06635208 62.10815887 56.07028198 63.42999268 C56.03674377 104.27575623 56.03674377 104.27575623 46.3125 114 C44.68575222 114.09340434 43.05495949 114.11745171 41.42553711 114.11352539 C40.38453354 114.11344986 39.34352997 114.11337433 38.27098083 114.11329651 C37.1387056 114.10813522 36.00643036 114.10297394 34.83984375 114.09765625 C33.11067467 114.09553383 33.11067467 114.09553383 31.34657288 114.09336853 C27.64768936 114.08775005 23.94886536 114.07519442 20.25 114.0625 C17.74934983 114.05748738 15.24869871 114.05292406 12.74804688 114.04882812 C6.60284412 114.03777462 0.45767631 114.02101852 -5.6875 114 C-6.02450424 113.37414001 -6.36150848 112.74828003 -6.70872498 112.10345459 C-8.25934885 109.22852514 -9.81518014 106.35644484 -11.37109375 103.484375 C-11.90101929 102.50001465 -12.43094482 101.5156543 -12.97692871 100.50146484 C-16.00909282 94.91400171 -19.15683358 89.49518682 -22.75 84.25 C-23.1682605 83.63729248 -23.586521 83.02458496 -24.01745605 82.39331055 C-24.39196899 81.84586182 -24.76648193 81.29841309 -25.15234375 80.734375 C-28.12781793 76.37840404 -30.99601391 71.96023115 -33.8125 67.5 C-34.29855713 66.75782227 -34.78461426 66.01564453 -35.28540039 65.25097656 C-38.14350021 60.6751168 -39.35511821 57.55880002 -38.6875 52 C-37.625 50.0625 -37.625 50.0625 -35.6875 49 C-32.4375 48.375 -32.4375 48.375 -28.6875 49 C-25.95747414 50.99316047 -23.87083233 53.43422143 -21.6875 56 C-21.07519531 56.68320312 -20.46289062 57.36640625 -19.83203125 58.0703125 C-17.25350676 60.96221843 -14.77201071 63.89264856 -12.375 66.9375 C-10.84876242 69.08980875 -10.84876242 69.08980875 -8.6875 70 C-8.69860306 69.19677811 -8.70970612 68.39355621 -8.72114563 67.56599426 C-8.82141613 59.98879159 -8.89749892 52.41191149 -8.94656086 44.83421803 C-8.97263253 40.93858809 -9.00798427 37.04350727 -9.06469727 33.14819336 C-9.11910664 29.38747974 -9.14893883 25.62729356 -9.16188622 21.86621666 C-9.17111035 20.43285508 -9.18912371 18.99952172 -9.21615028 17.56638527 C-9.25254759 15.55601894 -9.25454327 13.54511953 -9.25512695 11.53442383 C-9.26623001 10.39080887 -9.27733307 9.24719391 -9.28877258 8.06892395 C-8.23370848 2.68382646 -5.46694725 -0 0 0 Z " fill="#4E2E8D" transform="translate(38.6875,0.00000000000000005551115123125783)"/>
</svg>
